# xmcd
#
# Track frame offsets:
#	150
#	21044
#	45589
#	62359
#	79119
#	97503
#	116208
#	134566
#	155494
#	175940
#	198708
#	217855
#	236808
#	252188
#	267354
#	286319
#	303772
#	319881
#	336117
#
# Disc length: 4715 seconds
#
# Revision: 1
# Processed by: cddbd v1.5.2PL0 Copyright (c) Steve Scherf et al.
# Submitted via: audiograbber 1.83.01
#
DISCID=08126913
DTITLE=Arno Geiger - Selbstporträt mit Flusspferd CD3
DYEAR=1900
DGENRE=
TTITLE0=32
TTITLE1=33
TTITLE2=34
TTITLE3=35
TTITLE4=36
TTITLE5=37
TTITLE6=38
TTITLE7=39
TTITLE8=40
TTITLE9=41
TTITLE10=42
TTITLE11=43
TTITLE12=44
TTITLE13=45
TTITLE14=46
TTITLE15=47
TTITLE16=48
TTITLE17=49
TTITLE18=50
EXTD=
EXTT0=
EXTT1=
EXTT2=
EXTT3=
EXTT4=
EXTT5=
EXTT6=
EXTT7=
EXTT8=
EXTT9=
EXTT10=
EXTT11=
EXTT12=
EXTT13=
EXTT14=
EXTT15=
EXTT16=
EXTT17=
EXTT18=
PLAYORDER=
